<svg id="SvgjsSvg1001" width="288" height="288" xmlns="http://www.w3.org/2000/svg" version="1.1" xmlns:xlink="http://www.w3.org/1999/xlink" xmlns:svgjs="http://svgjs.com/svgjs"><defs id="SvgjsDefs1002"></defs><g id="SvgjsG1008" transform="matrix(0.9167,0,0,0.9167,11.995201655229181,11.995200545700271)"><svg xmlns="http://www.w3.org/2000/svg" width="288" height="288" data-name="Group 92" viewBox="0 0 20.963 20.963"><path fill="#435a83" d="M14.482,14.482A5.241,5.241,0,1,0,9.241,9.241,5.239,5.239,0,0,0,14.482,14.482Zm8.372,3.354a18.169,18.169,0,0,0-16.744,0A3.892,3.892,0,0,0,4,21.321v2.332a1.314,1.314,0,0,0,1.31,1.31H23.653a1.314,1.314,0,0,0,1.31-1.31V21.321A3.892,3.892,0,0,0,22.854,17.836Z" data-name="Path 87" transform="translate(-4 -4)" class="color0096ff svgShape"></path></svg></g></svg>