<svg xmlns="http://www.w3.org/2000/svg" width="512" height="430" viewBox="0 0 512 430">
  <g id="Camera_linear" data-name="Camera linear" transform="translate(0 -41)">
    <path id="Path_186" data-name="Path 186" d="M467,121H380.3L369.12,65.117A30.08,30.08,0,0,0,339.7,41H172.3A30.081,30.081,0,0,0,142.88,65.117L131.7,121H45A45.051,45.051,0,0,0,0,166V426a45.051,45.051,0,0,0,45,45H467a45.051,45.051,0,0,0,45-45V166A45.051,45.051,0,0,0,467,121ZM172.3,71H339.7l10,50H162.3ZM482,426a15.017,15.017,0,0,1-15,15H45a15.017,15.017,0,0,1-15-15V166a15.017,15.017,0,0,1,15-15H467a15.017,15.017,0,0,1,15,15Z" fill="#8b99b1"/>
    <path id="Path_187" data-name="Path 187" d="M256,185A111,111,0,1,0,367,296,111.125,111.125,0,0,0,256,185Zm0,192a81,81,0,1,1,81-81A81.092,81.092,0,0,1,256,377Z" fill="#8b99b1"/>
    <path id="Path_188" data-name="Path 188" d="M128,185H80a15,15,0,0,0,0,30h48a15,15,0,0,0,0-30Z" fill="#8b99b1"/>
  </g>
</svg>
