<svg id="contact_bold" data-name="contact bold" xmlns="http://www.w3.org/2000/svg" width="302.301" height="386" viewBox="0 0 302.301 386">
  <path id="Path_189" data-name="Path 189" d="M151.1,173.1a31.5,31.5,0,1,0-31.5-31.5A31.5,31.5,0,0,0,151.1,173.1Zm0,0" fill="#0096ff"/>
  <path id="Path_190" data-name="Path 190" d="M151.1,223.2A56.247,56.247,0,0,0,110.7,240a60.242,60.242,0,0,0-16.5,35.9H207.9A59.392,59.392,0,0,0,191.4,240a55.653,55.653,0,0,0-40.3-16.8Zm0,0" fill="#0096ff"/>
  <path id="Path_191" data-name="Path 191" d="M269.3,0H33A33.034,33.034,0,0,0,0,33V57.6H26.4a7,7,0,0,1,0,14H0v71.6H26.4a7,7,0,0,1,0,14H0v71.6H26.4a7,7,0,0,1,0,14H0v71.6H26.4a7,7,0,1,1,0,14H0V353a33.034,33.034,0,0,0,33,33H269.3a33.034,33.034,0,0,0,33-33V33a33.034,33.034,0,0,0-33-33ZM151.1,96a45.5,45.5,0,1,1-45.5,45.5A45.5,45.5,0,0,1,151.1,96Zm64.2,194H86.9a6.962,6.962,0,0,1-7-7c0-20.3,7.4-39,20.8-52.7a70.981,70.981,0,0,1,100.8,0c13.4,13.7,20.8,32.4,20.8,52.7a6.962,6.962,0,0,1-7,7Zm0,0" fill="#0096ff"/>
</svg>
