<svg xmlns="http://www.w3.org/2000/svg" width="462.121" height="525" viewBox="0 0 462.121 525">
  <g id="contact_linear" data-name="contact linear" transform="translate(2.082)">
    <path id="Path_192" data-name="Path 192" d="M397.668,0H102.293a62.525,62.525,0,0,0-62.5,62.5v27H10.418a12.5,12.5,0,1,0,0,25H39.664v82H10.418a12.5,12.5,0,0,0,0,25H39.664v82H10.418a12.5,12.5,0,0,0,0,25H39.664v82H10.418a12.5,12.5,0,0,0,0,25H39.664v27a62.528,62.528,0,0,0,62.5,62.5H397.539a62.523,62.523,0,0,0,62.5-62.5V62.5A62.41,62.41,0,0,0,397.668,0Zm37.5,462.5a37.613,37.613,0,0,1-37.5,37.5H102.293a37.61,37.61,0,0,1-37.5-37.5v-27H94.039a12.5,12.5,0,1,0,0-25H64.793v-82H94.039a12.5,12.5,0,1,0,0-25H64.793v-82H94.039a12.5,12.5,0,1,0,0-25H64.793v-82H94.039a12.5,12.5,0,1,0,0-25H64.793v-27a37.61,37.61,0,0,1,37.5-37.5H397.668a37.613,37.613,0,0,1,37.5,37.5Zm0,0" fill="#8b99b1"/>
    <path id="Path_193" data-name="Path 193" d="M249.918,258.875a60.625,60.625,0,1,0-60.625-60.625A60.625,60.625,0,0,0,249.918,258.875Zm0-96.375a35.625,35.625,0,1,1-35.625,35.625A35.629,35.629,0,0,1,249.918,162.5Zm0,0" fill="#8b99b1"/>
    <path id="Path_194" data-name="Path 194" d="M249.918,279c-52,0-92.754,42.125-92.754,96a12.537,12.537,0,0,0,12.5,12.5h160.5a12.537,12.537,0,0,0,12.5-12.5c0-53.875-40.754-96-92.75-96Zm-66.754,83.5c5.379-34.125,32.254-58.5,66.754-58.5s61.5,24.375,66.75,58.5Zm0,0" fill="#8b99b1"/>
  </g>
</svg>
