<svg xmlns="http://www.w3.org/2000/svg" width="40" height="40" viewBox="0 0 40 40">
  <g id="Group_88" data-name="Group 88" transform="translate(-7856 2103)">
    <g id="Ellipse_44" data-name="Ellipse 44" transform="translate(7856 -2103)" fill="#fff" stroke="#0096ff" stroke-width="1">
      <circle cx="20" cy="20" r="20" stroke="none"/>
      <circle cx="20" cy="20" r="19.5" fill="none"/>
    </g>
    <g id="delete_1_" data-name="delete (1)" transform="translate(7867.625 -2093.411)">
      <path id="Path_121" data-name="Path 121" d="M126.74,1.276h3.532V1.87h1.275V1.192A1.193,1.193,0,0,0,130.356,0h-3.7a1.193,1.193,0,0,0-1.192,1.192V1.87h1.276Zm0,0" transform="translate(-120.286 0)" fill="#0096ff"/>
      <path id="Path_122" data-name="Path 122" d="M53.026,167.75H41.052a.562.562,0,0,0-.56.607l1,12.378a1.329,1.329,0,0,0,1.325,1.223H51.26a1.329,1.329,0,0,0,1.325-1.223l1-12.378a.561.561,0,0,0-.56-.607Zm-9.075,12.888h-.04a.638.638,0,0,1-.636-.6l-.627-10.162a.638.638,0,0,1,1.273-.079l.627,10.162A.638.638,0,0,1,43.952,180.638ZM47.684,180a.638.638,0,0,1-1.276,0V169.84a.638.638,0,0,1,1.276,0Zm3.746-10.124-.6,10.162a.638.638,0,0,1-.636.6h-.038a.638.638,0,0,1-.6-.674l.6-10.162a.638.638,0,0,1,1.273.075Zm0,0" transform="translate(-38.819 -160.826)" fill="#0096ff"/>
      <path id="Path_123" data-name="Path 123" d="M16.413,78.021l-.419-1.256a.811.811,0,0,0-.769-.554H1.216a.811.811,0,0,0-.769.554L.028,78.021a.527.527,0,0,0,.5.693H15.914a.519.519,0,0,0,.279-.08.525.525,0,0,0,.221-.612Zm0,0" transform="translate(0 -73.066)" fill="#0096ff"/>
    </g>
  </g>
</svg>
