<svg id="history_linear" data-name="history linear" xmlns="http://www.w3.org/2000/svg" width="512" height="512" viewBox="0 0 512 512">
  <g id="Group_102" data-name="Group 102">
    <g id="Group_101" data-name="Group 101">
      <path id="Path_197" data-name="Path 197" d="M256,0a15,15,0,0,0,0,30c124.617,0,226,101.383,226,226S380.617,482,256,482,30,380.617,30,256c0-60.357,25.37-118.632,69.017-161.036V121A14.992,14.992,0,1,0,129,121V61a14.986,14.986,0,0,0-14.983-15H53.5a14.95,14.95,0,1,0,0,29.9H75.512C27.008,124.322,0,189.079,0,256,0,396.74,115.209,512,256,512c140.74,0,256-115.209,256-256C512,115.26,396.791,0,256,0Z" fill="#8b99b1"/>
    </g>
  </g>
  <g id="Group_104" data-name="Group 104">
    <g id="Group_103" data-name="Group 103">
      <path id="Path_198" data-name="Path 198" d="M256,91C165.025,91,91,165.049,91,256c0,90.981,74.055,165,165,165,90.975,0,165-74.049,165-165C421,165.019,346.945,91,256,91ZM361.429,340.216l-9.969-9.97a15,15,0,0,0-21.213,21.213l9.97,9.97A134.375,134.375,0,0,1,271,390.162V376a15,15,0,0,0-30,0v14.162a134.368,134.368,0,0,1-69.216-28.733l9.97-9.97a15,15,0,0,0-21.213-21.213l-9.97,9.97A134.36,134.36,0,0,1,121.838,271H136a15,15,0,0,0,0-30H121.838a134.368,134.368,0,0,1,28.733-69.216l9.97,9.97a15,15,0,0,0,21.213-21.213l-9.97-9.97A134.368,134.368,0,0,1,241,121.838V136a15,15,0,0,0,30,0V121.838a134.368,134.368,0,0,1,69.216,28.733l-9.97,9.97a15,15,0,0,0,21.213,21.213l9.969-9.97A134.352,134.352,0,0,1,390.162,241H376a14.95,14.95,0,1,0,0,29.9h14.162A134.7,134.7,0,0,1,361.429,340.216Z" fill="#8b99b1"/>
    </g>
  </g>
  <g id="Group_106" data-name="Group 106">
    <g id="Group_105" data-name="Group 105">
      <path id="Path_199" data-name="Path 199" d="M296.607,275.393,271,249.787V196a15,15,0,0,0-30,0v60a15,15,0,0,0,4.394,10.606l30,30a15,15,0,0,0,21.213-21.213Z" fill="#8b99b1"/>
    </g>
  </g>
</svg>
