<svg xmlns="http://www.w3.org/2000/svg" width="38" height="38" viewBox="0 0 38 38">
  <g id="Group_111" data-name="Group 111" transform="translate(-284 -395)">
    <g id="Group_110" data-name="Group 110">
      <g id="Group_107" data-name="Group 107" transform="translate(0 182)">
        <circle id="Ellipse_78" data-name="Ellipse 78" cx="19" cy="19" r="19" transform="translate(284 213)" fill="#0096ff"/>
      </g>
      <g id="Group_109" data-name="Group 109" transform="translate(88.512 105.511)">
        <g id="invitation" transform="translate(208 302)">
          <path id="Path_129" data-name="Path 129" d="M0,204.943V212.2a.406.406,0,0,0,.406.406H12.572a.406.406,0,0,0,.406-.406v-7.253a.127.127,0,0,0-.208-.1l-6.021,5.018a.405.405,0,0,1-.519,0L.208,204.845a.127.127,0,0,0-.208.1Z" transform="translate(0 -199.624)" fill="#fff"/>
          <path id="Path_130" data-name="Path 130" d="M190.26,114.6c.589-.278,1.71-.981,1.71-1.829a.8.8,0,0,0-1.4-.491.406.406,0,0,1-.617,0,.8.8,0,0,0-1.4.491C188.55,113.615,189.67,114.318,190.26,114.6Z" transform="translate(-183.771 -109.16)"/>
          <path id="Path_131" data-name="Path 131" d="M104.111,5.969V.406A.406.406,0,0,0,103.705,0h-7.3A.406.406,0,0,0,96,.406V5.961a.127.127,0,0,0,.045.1L99.974,9.34a.127.127,0,0,0,.162,0l3.929-3.274a.127.127,0,0,0,.046-.1Zm-4.055-3.657a1.607,1.607,0,0,1,2.521,1.3c0,1.664-2.271,2.608-2.368,2.648a.407.407,0,0,1-.306,0c-.1-.04-2.368-.984-2.368-2.648a1.607,1.607,0,0,1,2.521-1.3Z" transform="translate(-93.567)" fill="#fff"/>
          <path id="Path_132" data-name="Path 132" transform="translate(0)"/>
          <path id="Path_133" data-name="Path 133" transform="translate(0)"/>
          <path id="Path_134" data-name="Path 134" d="M448,136.792v1.487a.127.127,0,0,0,.208.1l.892-.743a.127.127,0,0,0,0-.195l-.892-.743A.127.127,0,0,0,448,136.792Z" transform="translate(-436.645 -133.202)" fill="#fff"/>
          <path id="Path_135" data-name="Path 135" d="M19.955,136.792v1.487a.127.127,0,0,1-.208.1l-.892-.743a.127.127,0,0,1,0-.195l.892-.743A.127.127,0,0,1,19.955,136.792Z" transform="translate(-18.333 -133.202)" fill="#fff"/>
        </g>
        <circle id="Ellipse_81" data-name="Ellipse 81" cx="2.772" cy="2.772" r="2.772" transform="translate(211.563 303.199)" fill="#0096ff"/>
        <g id="Group_108" data-name="Group 108" transform="translate(213.042 304.651)">
          <path id="Path_87" data-name="Path 87" d="M5.292,5.292a.646.646,0,1,0-.646-.646A.646.646,0,0,0,5.292,5.292Zm1.032.414a2.24,2.24,0,0,0-2.065,0,.48.48,0,0,0-.26.43v.288a.162.162,0,0,0,.162.162H6.423a.162.162,0,0,0,.162-.162V6.136A.48.48,0,0,0,6.325,5.706Z" transform="translate(-4 -4)" fill="#fff"/>
        </g>
      </g>
    </g>
  </g>
</svg>
