<svg xmlns="http://www.w3.org/2000/svg" width="140" height="140" viewBox="0 0 140 140">
  <g id="Group_161" data-name="Group 161" transform="translate(-118 -36)">
    <circle id="Ellipse_137" data-name="Ellipse 137" cx="70" cy="70" r="70" transform="translate(118 36)" fill="#0096ff"/>
    <g id="Group_127" data-name="Group 127" transform="translate(129.179 47.179)" opacity="0.4">
      <path id="Path_165" data-name="Path 165" d="M3609.5,763.606a58.737,58.737,0,1,1,41.534-17.2A58.352,58.352,0,0,1,3609.5,763.606Zm0-115.37a56.632,56.632,0,1,0,56.632,56.632A56.7,56.7,0,0,0,3609.5,648.236Z" transform="translate(-3550.76 -646.13)" fill="#fff"/>
    </g>
    <g id="Group_128" data-name="Group 128" transform="translate(125.583 43.583)" opacity="0.5">
      <path id="Path_166" data-name="Path 166" d="M3599.438,757.347a62.539,62.539,0,1,1,44.221-18.317A62.126,62.126,0,0,1,3599.438,757.347Zm0-122.834a60.3,60.3,0,1,0,60.3,60.3A60.363,60.363,0,0,0,3599.438,634.513Z" transform="translate(-3536.899 -632.27)" fill="#fff"/>
    </g>
    <g id="Group_129" data-name="Group 129" transform="translate(120.787 38.787)" opacity="0.1">
      <path id="Path_167" data-name="Path 167" d="M3588.653,750.646a66.611,66.611,0,1,1,47.1-19.51A66.18,66.18,0,0,1,3588.653,750.646Zm0-130.84a64.227,64.227,0,1,0,64.228,64.227A64.3,64.3,0,0,0,3588.653,619.805Z" transform="translate(-3522.041 -617.42)" fill="#fff"/>
    </g>
    <path id="Path_164" data-name="Path 164" d="M3691.986,789.416a7.954,7.954,0,0,1-4.521,1.52,52.117,52.117,0,0,1-23.349-6.345,61.206,61.206,0,0,1-25.259-25.528,62.645,62.645,0,0,1-6.837-20.6,36.9,36.9,0,0,1-.395-9.595,9.081,9.081,0,0,1,2.522-4.767,25.836,25.836,0,0,1,6.035-5.169,5.757,5.757,0,0,1,5.165-.571c3.216,1.1,5.651,2.9,6.6,6.458,1.018,3.8,1.943,7.6,2.629,11.468a4.858,4.858,0,0,1-1.153,4.118,29.078,29.078,0,0,1-2.719,2.893c-.684.648-1.384,1.276-2.083,1.9-.138.123-.274.249-.413.372-.043.041-.087.082-.125.12a1.071,1.071,0,0,0-.382.784c.1,5.71,2.693,12.119,7.583,17.473,4.844,5.3,10.92,8.457,16.551,9.116a.691.691,0,0,1,.072.01,1.347,1.347,0,0,0,.979-.341,3.248,3.248,0,0,0,.259-.228l.159-.154q.873-.842,1.792-1.635c.843-.736,1.714-1.44,2.6-2.125a5.845,5.845,0,0,1,5.684-1.181c3.783,1.176,7.545,2.36,11.217,3.875,3.057,1.261,4.252,3.739,5.041,6.594a6.08,6.08,0,0,1-1.368,5.871,28.45,28.45,0,0,1-6.282,5.659Z" transform="translate(-3477.677 -648.478)" fill="#fff"/>
  </g>
</svg>
