<svg xmlns="http://www.w3.org/2000/svg" xmlns:xlink="http://www.w3.org/1999/xlink" width="181.245" height="128.252" viewBox="0 0 181.245 128.252">
  <defs>
    <clipPath id="clip-path">
      <rect y="45" width="92.51" height="52.604" fill="none"/>
    </clipPath>
  </defs>
  <g id="undraw_server_cluster_jwwq" transform="translate(0 -14.662)">
    <g id="Scroll_Group_16" data-name="Scroll Group 16" transform="translate(37.728 23.675)" clip-path="url(#clip-path)" style="isolation: isolate">
      <path id="Path_121" data-name="Path 121" d="M387.1,271.759a46.252,46.252,0,1,1,32.706-13.547A46.252,46.252,0,0,1,387.1,271.759Zm0-92.149a45.9,45.9,0,1,0,45.9,45.9,45.949,45.949,0,0,0-45.9-45.9Z" transform="translate(-340.847 -179.249)" fill="#ccc"/>
    </g>
    <rect id="Rectangle_34" data-name="Rectangle 34" width="53.475" height="39.8" transform="translate(110.522 75.764) rotate(90)" fill="#2f2e41"/>
    <rect id="Rectangle_35" data-name="Rectangle 35" width="53.475" height="21.227" transform="translate(63.885 74.131)" fill="#3f3d56"/>
    <rect id="Rectangle_36" data-name="Rectangle 36" width="53.475" height="21.227" transform="translate(63.885 97.807)" fill="#3f3d56"/>
    <rect id="Rectangle_37" data-name="Rectangle 37" width="53.475" height="21.227" transform="translate(63.885 121.483)" fill="#3f3d56"/>
    <rect id="Rectangle_38" data-name="Rectangle 38" width="53.475" height="3.266" transform="translate(63.885 83.132)" fill="#0096ff"/>
    <rect id="Rectangle_39" data-name="Rectangle 39" width="53.475" height="3.266" transform="translate(63.885 106.808)" fill="#0096ff"/>
    <rect id="Rectangle_40" data-name="Rectangle 40" width="53.475" height="3.266" transform="translate(63.885 130.484)" fill="#0096ff"/>
    <circle id="Ellipse_44" data-name="Ellipse 44" cx="1.225" cy="1.225" r="1.225" transform="translate(105.726 75.968)" fill="#0096ff"/>
    <circle id="Ellipse_45" data-name="Ellipse 45" cx="1.225" cy="1.225" r="1.225" transform="translate(110.012 75.968)" fill="#0096ff"/>
    <circle id="Ellipse_46" data-name="Ellipse 46" cx="1.225" cy="1.225" r="1.225" transform="translate(114.298 75.968)" fill="#0096ff"/>
    <circle id="Ellipse_47" data-name="Ellipse 47" cx="1.225" cy="1.225" r="1.225" transform="translate(105.726 99.236)" fill="#0096ff"/>
    <circle id="Ellipse_48" data-name="Ellipse 48" cx="1.225" cy="1.225" r="1.225" transform="translate(110.012 99.236)" fill="#0096ff"/>
    <circle id="Ellipse_49" data-name="Ellipse 49" cx="1.225" cy="1.225" r="1.225" transform="translate(114.298 99.236)" fill="#0096ff"/>
    <circle id="Ellipse_50" data-name="Ellipse 50" cx="1.225" cy="1.225" r="1.225" transform="translate(105.726 122.504)" fill="#0096ff"/>
    <circle id="Ellipse_51" data-name="Ellipse 51" cx="1.225" cy="1.225" r="1.225" transform="translate(110.012 122.504)" fill="#0096ff"/>
    <circle id="Ellipse_52" data-name="Ellipse 52" cx="1.225" cy="1.225" r="1.225" transform="translate(114.298 122.504)" fill="#0096ff"/>
    <rect id="Rectangle_41" data-name="Rectangle 41" width="181.245" height="0.408" transform="translate(0 142.506)" fill="#3f3d56"/>
    <path id="Path_122" data-name="Path 122" d="M331.509,356.079v64.528a5.091,5.091,0,0,1-5.089,5.09H301.342a5.092,5.092,0,0,1-5.092-5.091V356.079a5.092,5.092,0,0,1,5.092-5.09h3.042a2.421,2.421,0,0,0,2.24,3.333h14.3a2.421,2.421,0,0,0,2.24-3.333h3.258a5.091,5.091,0,0,1,5.09,5.09Z" transform="translate(-275.847 -336.326)" fill="#e6e6e6"/>
    <rect id="Rectangle_42" data-name="Rectangle 42" width="31.918" height="44.408" transform="translate(22.073 26.984)" fill="#fff"/>
    <rect id="Rectangle_43" data-name="Rectangle 43" width="12.739" height="0.728" transform="translate(31.135 57.521)" fill="#e6e6e6"/>
    <rect id="Rectangle_44" data-name="Rectangle 44" width="19.712" height="0.728" transform="translate(31.122 60.194)" fill="#0096ff"/>
    <rect id="Rectangle_45" data-name="Rectangle 45" width="15.469" height="0.728" transform="translate(31.122 62.712)" fill="#e6e6e6"/>
    <rect id="Rectangle_46" data-name="Rectangle 46" width="9.1" height="0.728" transform="translate(31.122 65.231)" fill="#e6e6e6"/>
    <rect id="Rectangle_47" data-name="Rectangle 47" width="13.649" height="0.728" transform="translate(31.122 67.749)" fill="#e6e6e6"/>
    <rect id="Rectangle_48" data-name="Rectangle 48" width="1.456" height="1.456" transform="translate(25.358 57.312)" fill="#e6e6e6"/>
    <rect id="Rectangle_49" data-name="Rectangle 49" width="1.456" height="1.456" transform="translate(25.358 59.83)" fill="#0096ff"/>
    <rect id="Rectangle_50" data-name="Rectangle 50" width="1.456" height="1.456" transform="translate(25.358 62.348)" fill="#e6e6e6"/>
    <rect id="Rectangle_51" data-name="Rectangle 51" width="1.456" height="1.456" transform="translate(25.358 64.867)" fill="#e6e6e6"/>
    <rect id="Rectangle_52" data-name="Rectangle 52" width="1.456" height="1.456" transform="translate(25.358 67.385)" fill="#e6e6e6"/>
    <rect id="Rectangle_53" data-name="Rectangle 53" width="12.836" height="12.836" transform="translate(31.678 32.535)" fill="#e6e6e6"/>
    <ellipse id="Ellipse_56" data-name="Ellipse 56" cx="16.364" cy="16.364" rx="16.364" ry="16.364" transform="translate(114.299 40.016)" fill="#e6e6e6"/>
    <ellipse id="Ellipse_57" data-name="Ellipse 57" cx="12.764" cy="12.764" rx="12.764" ry="12.764" transform="translate(117.898 43.617)" fill="#fff"/>
  </g>
</svg>
