<svg xmlns="http://www.w3.org/2000/svg" width="38" height="38" viewBox="0 0 38 38">
  <g id="Group_106" data-name="Group 106" transform="translate(-284 -213)">
    <circle id="Ellipse_78" data-name="Ellipse 78" cx="19" cy="19" r="19" transform="translate(284 213)" fill="#0096ff"/>
    <path id="Icon_awesome-share" data-name="Icon awesome-share" d="M14.145,6.683,9.2,2.414a.674.674,0,0,0-1.115.51V5.173C3.577,5.224,0,6.128,0,10.4a5.741,5.741,0,0,0,2.34,4.328.5.5,0,0,0,.788-.523c-1.273-4.072.6-5.154,4.959-5.216v2.469a.674.674,0,0,0,1.115.51L14.145,7.7A.674.674,0,0,0,14.145,6.683Z" transform="translate(296.311 223.459)" fill="#fff"/>
  </g>
</svg>
